<svg version="1" xmlns="http://www.w3.org/2000/svg" width="858.667" height="858.667" viewBox="0 0 644.000000 644.000000"><path d="M.5 12c-.3.5-.2 1 .3 1s3.7 6 7 13.2C11.1 33.5 23.1 60 34.5 85 45.9 110 56 132.3 57 134.5c1 2.2 20.1 44.3 42.5 93.5s42.9 94.2 45.5 100c4.2 9.5 45.6 100.5 53.5 117.5 1.7 3.8 19.1 42 38.5 84.8l35.3 77.7h35.4l5.8 13 5.9 13h26.8c17.3 0 26.8-.4 26.8-1s4.4-10.8 9.8-22.8c15.5-34 205-450.5 214.1-470.5C609.1 113 644 35.9 644 35.5c0-.3-12.6-.5-28-.5-15.8 0-28-.4-28-.9s2.2-5.6 4.9-11.4c2.7-5.8 4.7-10.8 4.3-11.1-1-1.1-596-.7-596.7.4zm505.7 78.3c-.9 1.1-15.1 33.2-55.7 126.2-12.9 29.5-47.4 108.3-82.7 189-11.6 26.4-21.6 49.2-22.2 50.7-1.1 2.5-1.5 1.8-8.3-13.5-7.9-18-23.8-54.3-48.3-110.2-8.9-20.4-19-43.5-22.5-51.5-48.6-110.6-82.8-188.8-83.2-190.3-.5-1.6 7.7-1.7 161.7-1.7 130 0 162 .2 161.2 1.3zm47.4 20.4c-.8 1.5-1.5 2.5-1.6 2.1 0-1.2 2.3-5.8 2.7-5.4.3.2-.2 1.7-1.1 3.3zm-22.2 50.9c-10.8 24.7-22.7 51.9-26.4 60.4-3.7 8.5-18.1 41.4-32 73-13.9 31.6-29.6 67.6-35 80-5.4 12.4-22 50.3-36.9 84.4-14.9 34-27.1 62.2-27.1 62.7 0 2.3-1.9.5-3.3-3.2l-1.6-4.1 85.6-188.1c47-103.5 87.8-193.3 90.6-199.5 2.8-6.2 5.2-11 5.4-10.8.2.2-8.5 20.5-19.3 45.2z"/></svg>